<svg xmlns="http://www.w3.org/2000/svg" viewBox="0 0 878.03 168"><defs><style>.a{fill:#8cc63f;}.b{fill:#f2f2f2;}.c{fill:#006837;}</style></defs><title>logo-ver1</title><rect class="a" x="1" y="29" width="877.03" height="139"/><rect width="877.03" height="13"/><path d="M137.54,469.46V397.84L124.4,384.66H112.52L99.38,397.84v71.62H86.66V392.55l20.78-20.61h22l14.42,14.2,14.42-14.2h22.05l20.77,20.61v76.91H188.42V397.84l-13.14-13.18H163.41l-13.15,13.18v71.62Z" transform="translate(-65 -319)"/><path d="M277.89,469.46h-39L218.1,448.85v-56.3l20.78-20.61h39l20.77,20.56v22.26l-20.77,20.78H235.06V422.82H272.8l13.14-13.36V397.8L272.8,384.66H244l-13.15,13.18v45.72L244,457H272.8l19.5-19.71,8.91,9.11Z" transform="translate(-65 -319)"/><path d="M378,469.46H318.16V457h54.7L386,443.5V427.06H318.16V392.5l20.78-20.56h59.79v12.72H344L330.89,397.8v16.54h67.84v34.48Z" transform="translate(-65 -319)"/><path d="M415.69,469.46V326h12.72v53.78l8-7.84h39l20.78,20.61v76.91H483.53V397.84l-13.15-13.18H441.55l-13.14,13.18v71.62Z" transform="translate(-65 -319)"/><path class="b" d="M581.05,446V391.61l-13.15-10H539.07l-13.14,10V446H513.21V387.59L534,371.94h39l20.78,15.65V446Z" transform="translate(-65 -319)"/><path class="b" d="M670.51,446h-39l-20.77-15.67v-17L631.5,397.7h42.83v9.66H636.59l-13.14,10v8.9l13.14,10.2h28.83l13.15-10.17V391.61l-13.15-10H627.69v-9.66h42.82l20.78,15.65v42.76Z" transform="translate(-65 -319)"/><path class="b" d="M759.13,446V391.61L746,381.6H734.11l-13.14,10V446H708.25V387.59L729,371.94h22.05l14.42,10.79,14.41-10.79H802l20.78,15.65V446H810V391.61l-13.14-10H785l-13.14,10V446Z" transform="translate(-65 -319)"/><path class="b" d="M899.47,446h-39l-20.78-15.65V387.59l20.78-15.65h39l20.78,15.62v16.9l-20.78,15.78H856.65v-9.66h37.74l13.14-10.14v-8.86l-13.14-10H865.55l-13.14,10v34.72l13.14,10.17h28.84l19.5-15,8.91,6.92Z" transform="translate(-65 -319)"/><path class="c" d="M513,469.15V457h8.41c7.39,0,12,.83,12,2.17v7.95c0,1.25-4.92,2-12.82,2Zm5.44-.92h2.15c4.92,0,7.39-.36,7.39-1.11v-7.95c0-.83-2.26-1.25-6.57-1.25h-3Z" transform="translate(-65 -319)"/><path class="c" d="M547.72,467.43v-8.71c0-.94,4.62-1.72,10.16-1.72s10.25.78,10.25,1.72v8.71c0,.94-4.61,1.72-10.25,1.72S547.72,468.37,547.72,467.43Zm5.44-8.71v8.71c0,.44,2.15.8,4.72.8s4.82-.36,4.82-.8v-8.71c0-.44-2.16-.8-4.82-.8S553.16,458.28,553.16,458.72Z" transform="translate(-65 -319)"/><path class="c" d="M580.44,467.43v-8.71c0-.94,4.62-1.72,10.15-1.72s10.26.78,10.26,1.72v8.71c0,.94-4.61,1.72-10.26,1.72S580.44,468.37,580.44,467.43Zm5.44-8.71v8.71c0,.44,2.15.8,4.71.8s4.83-.36,4.83-.8v-8.71c0-.44-2.16-.8-4.83-.8S585.88,458.28,585.88,458.72Z" transform="translate(-65 -319)"/><path class="c" d="M640.29,469.15h-5.43v-8L630,464.27h-4.51l-4.82-3.16v8h-5.44V457h4.82l7.7,5.09,7.69-5.09h4.82Z" transform="translate(-65 -319)"/><path class="c" d="M656.7,467.43V465.9h5.44v1.53c0,.44,2.15.8,4.72.8s4.82-.36,4.82-.8v-2.17c0-1.07-3.08-1.56-6.67-2.13-3.9-.63-8.31-1.34-8.31-2.81v-1.6c0-.94,4.62-1.72,10.16-1.72s10.25.78,10.25,1.72v1.44h-5.43v-1.44c0-.44-2.16-.8-4.82-.8s-4.72.36-4.72.8v1.6c0,1.07,3.08,1.57,6.66,2.15,3.9.62,8.31,1.32,8.31,2.79v2.17c0,.94-4.61,1.72-10.25,1.72S656.7,468.37,656.7,467.43Z" transform="translate(-65 -319)"/><path class="c" d="M693.52,469.15V457h8.41c7.39,0,12,.83,12,2.17v7.95c0,1.25-4.93,2-12.83,2Zm5.44-.92h2.15c4.93,0,7.39-.36,7.39-1.11v-7.95c0-.83-2.26-1.25-6.57-1.25h-3Z" transform="translate(-65 -319)"/><path class="c" d="M747.37,469.15l-2.66-2.78H732.5l-2.77,2.78h-5.54L736.29,457h4.62l12,12.15Zm-14-3.7h10.36l-5.23-5.22Z" transform="translate(-65 -319)"/><path class="c" d="M780.4,457h5.54l-9.64,7.24v4.91h-5.44v-4.91L761.12,457h5.53l6.88,5.12Z" transform="translate(-65 -319)"/><path class="c" d="M825.94,469.15V457h8.41c7.39,0,12,.83,12,2.17v7.95c0,1.25-4.92,2-12.82,2Zm5.44-.92h2.15c4.93,0,7.39-.36,7.39-1.11v-7.95c0-.83-2.26-1.25-6.57-1.25h-3Z" transform="translate(-65 -319)"/><path class="c" d="M878.25,469.15l-10-7.55v7.55h-5.44V457h4.93l10,7.55V457h5.44v12.15Z" transform="translate(-65 -319)"/><path class="c" d="M899.59,467.43V465.9H905v1.53c0,.44,2.16.8,4.72.8s4.82-.36,4.82-.8v-2.17c0-1.07-3.08-1.56-6.66-2.13-3.9-.63-8.31-1.34-8.31-2.81v-1.6c0-.94,4.61-1.72,10.15-1.72s10.26.78,10.26,1.72v1.44h-5.44v-1.44c0-.44-2.15-.8-4.82-.8s-4.72.36-4.72.8v1.6c0,1.07,3.08,1.57,6.67,2.15,3.9.62,8.31,1.32,8.31,2.79v2.17c0,.94-4.62,1.72-10.26,1.72S899.59,468.37,899.59,467.43Z" transform="translate(-65 -319)"/></svg>