<svg xmlns="http://www.w3.org/2000/svg" viewBox="0 0 877.06 166"><defs><style>.a{fill:#8cc63f;}.b{fill:#f2f2f2;}</style></defs><title>logo</title><rect class="a" x="0.03" y="27" width="877.03" height="139"/><rect width="877.03" height="13"/><path d="M137.54,469.46V397.84L124.4,384.66H112.52L99.38,397.84v71.62H86.66V392.55l20.78-20.61h22l14.42,14.2,14.42-14.2h22.05l20.77,20.61v76.91H188.42V397.84l-13.14-13.18H163.41l-13.15,13.18v71.62Z" transform="translate(-65.97 -321)"/><path d="M277.89,469.46h-39L218.1,448.85v-56.3l20.78-20.61h39l20.77,20.56v22.26l-20.77,20.78H235.06V422.82H272.8l13.14-13.36V397.8L272.8,384.66H244l-13.15,13.18v45.72L244,457H272.8l19.5-19.71,8.91,9.11Z" transform="translate(-65.97 -321)"/><path d="M378,469.46H318.16V457h54.7L386,443.5V427.06H318.16V392.5l20.78-20.56h59.79v12.72H344L330.89,397.8v16.54h67.84v34.48Z" transform="translate(-65.97 -321)"/><path d="M415.69,469.46V326h12.72v53.78l8-7.84h39l20.78,20.61v76.91H483.53V397.84l-13.15-13.18H441.55l-13.14,13.18v71.62Z" transform="translate(-65.97 -321)"/><path class="b" d="M581.05,469.46V397.84L567.9,384.66H539.07l-13.14,13.18v71.62H513.21V392.55L534,371.94h39l20.78,20.61v76.91Z" transform="translate(-65.97 -321)"/><path class="b" d="M670.51,469.46h-39l-20.77-20.63V426.49l20.77-20.63h42.83v12.72H636.59L623.45,431.8v11.72L636.59,457h28.83l13.15-13.39V397.84l-13.15-13.18H627.69V371.94h42.82l20.78,20.61v56.3Z" transform="translate(-65.97 -321)"/><path class="b" d="M759.13,469.46V397.84L746,384.66H734.11L721,397.84v71.62H708.25V392.55L729,371.94h22.05l14.42,14.2,14.41-14.2H802l20.78,20.61v76.91H810V397.84l-13.14-13.18H785l-13.14,13.18v71.62Z" transform="translate(-65.97 -321)"/><path class="b" d="M899.47,469.46h-39l-20.78-20.61v-56.3l20.78-20.61h39l20.78,20.56v22.26l-20.78,20.78H856.65V422.82h37.74l13.14-13.36V397.8l-13.14-13.14H865.55l-13.14,13.18v45.72L865.55,457h28.84l19.5-19.71,8.91,9.11Z" transform="translate(-65.97 -321)"/></svg>