<svg xmlns="http://www.w3.org/2000/svg" viewBox="0 0 878.03 168"><defs><style>.a{fill:#8cc63f;}.b{fill:#f2f2f2;}.c{fill:#006837;}</style></defs><title>logo-ver2</title><rect class="a" x="1" y="29" width="877.03" height="139"/><rect width="877.03" height="13"/><path d="M137.54,469.46V397.84L124.4,384.66H112.52L99.38,397.84v71.62H86.66V392.55l20.78-20.61h22l14.42,14.2,14.42-14.2h22.05l20.77,20.61v76.91H188.42V397.84l-13.14-13.18H163.41l-13.15,13.18v71.62Z" transform="translate(-65 -319)"/><path d="M277.89,469.46h-39L218.1,448.85v-56.3l20.78-20.61h39l20.77,20.56v22.26l-20.77,20.78H235.06V422.82H272.8l13.14-13.36V397.8L272.8,384.66H244l-13.15,13.18v45.72L244,457H272.8l19.5-19.71,8.91,9.11Z" transform="translate(-65 -319)"/><path d="M378,469.46H318.16V457h54.7L386,443.5V427.06H318.16V392.5l20.78-20.56h59.79v12.72H344L330.89,397.8v16.54h67.84v34.48Z" transform="translate(-65 -319)"/><path d="M415.69,469.46V326h12.72v53.78l8-7.84h39l20.78,20.61v76.91H483.53V397.84l-13.15-13.18H441.55l-13.14,13.18v71.62Z" transform="translate(-65 -319)"/><path class="b" d="M581.05,446V391.61l-13.15-10H539.07l-13.14,10V446H513.21V387.59L534,371.94h39l20.78,15.65V446Z" transform="translate(-65 -319)"/><path class="b" d="M670.51,470h-39l-20.77-20.75V426.8l20.77-20.75h42.83v12.79H636.59l-13.14,13.29v11.79l13.14,13.5h28.83L678.57,444V398l-13.15-13.26H627.69V371.94h42.82l20.78,20.72v56.62Z" transform="translate(-65 -319)"/><path class="b" d="M759.13,470V398L746,384.73H734.11L721,398v72H708.25V392.66L729,371.94h22.05l14.42,14.28,14.41-14.28H802l20.78,20.72V470H810V398l-13.14-13.25H785L771.85,398v72Z" transform="translate(-65 -319)"/><path class="b" d="M899.47,470h-39l-20.78-20.72V392.66l20.78-20.72h39l20.78,20.68V415l-20.78,20.89H856.65V423.1h37.74l13.14-13.43V398l-13.14-13.22H865.55L852.41,398v46l13.14,13.47h28.84l19.5-19.82,8.91,9.16Z" transform="translate(-65 -319)"/><path class="c" d="M513,469.15V457h1.67a2.12,2.12,0,0,1,2.39,2.17v7.95c0,1.25-1,2-2.55,2Zm1.08-.92h.43c1,0,1.47-.36,1.47-1.11v-7.95c0-.83-.45-1.25-1.31-1.25h-.59Z" transform="translate(-65 -319)"/><path class="c" d="M519.91,467.43v-8.71a2.06,2.06,0,0,1,4.06,0v8.71a2.06,2.06,0,0,1-4.06,0Zm1.08-8.71v8.71a1,1,0,0,0,1.9,0v-8.71a1,1,0,0,0-1.9,0Z" transform="translate(-65 -319)"/><path class="c" d="M526.42,467.43v-8.71a2.06,2.06,0,0,1,4.06,0v8.71a2.06,2.06,0,0,1-4.06,0Zm1.08-8.71v8.71a1,1,0,0,0,1.9,0v-8.71a1,1,0,0,0-1.9,0Z" transform="translate(-65 -319)"/><path class="c" d="M538.33,469.15h-1.08v-8l-1,3.16h-.9l-1-3.16v8h-1.08V457h1l1.53,5.09,1.53-5.09h1Z" transform="translate(-65 -319)"/><path class="c" d="M541.6,467.43V465.9h1.08v1.53a1,1,0,0,0,1.9,0v-2.17a2.56,2.56,0,0,0-1.33-2.13,3.44,3.44,0,0,1-1.65-2.82v-1.59a2.06,2.06,0,0,1,4.06,0v1.44h-1.08v-1.44a1,1,0,0,0-1.9,0v1.59a2.61,2.61,0,0,0,1.33,2.16,3.39,3.39,0,0,1,1.65,2.79v2.17a2.06,2.06,0,0,1-4.06,0Z" transform="translate(-65 -319)"/><path class="c" d="M548.93,469.15V457h1.67a2.12,2.12,0,0,1,2.39,2.17v7.95c0,1.25-1,2-2.55,2Zm1.08-.92h.43c1,0,1.47-.36,1.47-1.11v-7.95c0-.83-.45-1.25-1.31-1.25H550Z" transform="translate(-65 -319)"/><path class="c" d="M559.64,469.15l-.53-2.78h-2.43l-.55,2.78H555L557.44,457h.92l2.39,12.15Zm-2.77-3.7h2.06l-1-5.22Z" transform="translate(-65 -319)"/><path class="c" d="M566.22,457h1.1l-1.92,7.24v4.91h-1.08v-4.91L562.38,457h1.1l1.37,5.12Z" transform="translate(-65 -319)"/><path class="c" d="M575.28,469.15V457H577a2.12,2.12,0,0,1,2.39,2.17v7.95c0,1.25-1,2-2.55,2Zm1.08-.92h.43c1,0,1.47-.36,1.47-1.11v-7.95c0-.83-.45-1.25-1.31-1.25h-.59Z" transform="translate(-65 -319)"/><path class="c" d="M585.69,469.15l-2-7.55v7.55h-1.08V457h1l2,7.55V457h1.08v12.15Z" transform="translate(-65 -319)"/><path class="c" d="M589.94,467.43V465.9H591v1.53a1,1,0,0,0,1.9,0v-2.17a2.56,2.56,0,0,0-1.33-2.13,3.44,3.44,0,0,1-1.65-2.82v-1.59a2.06,2.06,0,0,1,4.06,0v1.44h-1.08v-1.44a1,1,0,0,0-1.9,0v1.59a2.61,2.61,0,0,0,1.33,2.16,3.39,3.39,0,0,1,1.65,2.79v2.17a2.06,2.06,0,0,1-4.06,0Z" transform="translate(-65 -319)"/></svg>